<svg xmlns="http://www.w3.org/2000/svg" width="1200" height="1200" viewBox="0 0 1200 1200" role="img" aria-labelledby="title desc">
  <title id="title">SkillBridge AI preview</title>
  <desc id="desc">A square preview graphic for SkillBridge AI showing the flow from job post to proof stories to tailored application materials.</desc>
  <rect width="1200" height="1200" fill="#f5f6f0"/>
  <rect x="84" y="74" width="1032" height="1052" rx="36" fill="#16211f"/>
  <rect x="84" y="74" width="1032" height="260" rx="36" fill="#244f47"/>
  <rect x="84" y="286" width="1032" height="58" fill="#244f47"/>

  <text x="132" y="171" font-family="Inter, Arial, sans-serif" font-size="68" font-weight="800" fill="#ffffff">SkillBridge AI</text>
  <text x="134" y="229" font-family="Inter, Arial, sans-serif" font-size="30" fill="#dce9e3">Turn real experience into role-ready applications</text>
  <rect x="132" y="257" width="238" height="52" rx="16" fill="#f0c15a"/>
  <text x="164" y="290" font-family="Inter, Arial, sans-serif" font-size="22" font-weight="800" fill="#17211f">Built with Codex</text>
  <rect x="392" y="257" width="374" height="52" rx="16" fill="#d6ece6"/>
  <text x="424" y="290" font-family="Inter, Arial, sans-serif" font-size="22" font-weight="800" fill="#17211f">Use your own Codex plan</text>

  <g>
    <rect x="132" y="410" width="936" height="158" rx="22" fill="#ffffff"/>
    <rect x="166" y="444" width="132" height="32" rx="10" fill="#d6ece6"/>
    <text x="166" y="522" font-family="Inter, Arial, sans-serif" font-size="42" font-weight="800" fill="#17211f">1. Read the Job Post</text>
    <text x="620" y="492" font-family="Inter, Arial, sans-serif" font-size="24" fill="#39504b">Requirements and duties</text>
    <text x="620" y="528" font-family="Inter, Arial, sans-serif" font-size="24" fill="#39504b">become a structured role signal.</text>
  </g>

  <g>
    <rect x="132" y="618" width="936" height="158" rx="22" fill="#ffffff"/>
    <rect x="166" y="652" width="152" height="32" rx="10" fill="#e8ddff"/>
    <text x="166" y="730" font-family="Inter, Arial, sans-serif" font-size="42" font-weight="800" fill="#17211f">2. Match Proof Stories</text>
    <text x="666" y="700" font-family="Inter, Arial, sans-serif" font-size="24" fill="#39504b">Approved skills and proof stories</text>
    <text x="666" y="736" font-family="Inter, Arial, sans-serif" font-size="24" fill="#39504b">are connected to the role.</text>
  </g>

  <g>
    <rect x="132" y="826" width="936" height="158" rx="22" fill="#ffffff"/>
    <rect x="166" y="860" width="146" height="32" rx="10" fill="#ffe7c2"/>
    <text x="166" y="938" font-family="Inter, Arial, sans-serif" font-size="42" font-weight="800" fill="#17211f">3. Draft Tailored Docs</text>
    <text x="680" y="908" font-family="Inter, Arial, sans-serif" font-size="24" fill="#39504b">Resume and cover letter drafts</text>
    <text x="680" y="944" font-family="Inter, Arial, sans-serif" font-size="24" fill="#39504b">stay human-reviewed.</text>
  </g>

  <path d="M600 580 L600 606" stroke="#f0c15a" stroke-width="10" stroke-linecap="round"/>
  <path d="M600 792 L600 818" stroke="#f0c15a" stroke-width="10" stroke-linecap="round"/>
  <rect x="184" y="1024" width="832" height="70" rx="22" fill="#d6ece6"/>
  <text x="277" y="1054" font-family="Inter, Arial, sans-serif" font-size="24" font-weight="800" fill="#17211f">No extra SkillBridge AI fee.</text>
  <text x="292" y="1084" font-family="Inter, Arial, sans-serif" font-size="22" font-weight="700" fill="#17211f">AI suggests. You approve. Applications stay truthful.</text>
</svg>
